<?xml version="1.0" encoding="UTF-8" standalone="no"?>
<svg
   viewBox="0 0 48 48"
   width="48px"
   height="48px"
   version="1.1"
   id="svg1"
   sodipodi:docname="github.svg"
   inkscape:version="1.4 (e7c3feb100, 2024-10-09)"
   xmlns:inkscape="http://www.inkscape.org/namespaces/inkscape"
   xmlns:sodipodi="http://sodipodi.sourceforge.net/DTD/sodipodi-0.dtd"
   xmlns="http://www.w3.org/2000/svg"
   xmlns:svg="http://www.w3.org/2000/svg">
  <defs
     id="defs1" />
  <sodipodi:namedview
     id="namedview1"
     pagecolor="#ffffff"
     bordercolor="#000000"
     borderopacity="0.25"
     inkscape:showpageshadow="2"
     inkscape:pageopacity="0.0"
     inkscape:pagecheckerboard="0"
     inkscape:deskcolor="#d1d1d1"
     inkscape:zoom="19.9375"
     inkscape:cx="23.974922"
     inkscape:cy="24"
     inkscape:window-width="2048"
     inkscape:window-height="1208"
     inkscape:window-x="0"
     inkscape:window-y="0"
     inkscape:window-maximized="1"
     inkscape:current-layer="svg1" />
  <path
     d="M 24 4 C 12.972066 4 4 12.972074 4 24 C 4 35.027926 12.972066 44 24 44 C 35.027934 44 44 35.027926 44 24 C 44 12.972074 35.027934 4 24 4 z M 24 7 C 33.406615 7 41 14.593391 41 24 C 41 31.66536 35.956939 38.122519 29 40.251953 L 29 35.136719 C 29 33.226635 27.899316 31.588619 26.308594 30.773438 A 10 8 0 0 0 32.4375 18.720703 C 32.881044 17.355414 33.376523 14.960672 32.199219 13.076172 C 29.929345 13.076172 28.464667 14.632086 27.765625 15.599609 A 10 8 0 0 0 24 15 A 10 8 0 0 0 20.230469 15.59375 C 19.529731 14.625773 18.066226 13.076172 15.800781 13.076172 C 14.449711 15.238817 15.28492 17.564557 15.732422 18.513672 A 10 8 0 0 0 21.681641 30.779297 C 20.3755 31.452483 19.397283 32.674042 19.097656 34.15625 L 17.783203 34.15625 C 16.486203 34.15625 15.98225 33.629234 15.28125 32.740234 C 14.58925 31.851234 13.845172 31.253859 12.951172 31.005859 C 12.469172 30.954859 12.144453 31.321484 12.564453 31.646484 C 13.983453 32.612484 14.081391 34.193516 14.650391 35.228516 C 15.168391 36.160516 16.229687 37 17.429688 37 L 19 37 L 19 40.251953 C 12.043061 38.122519 7 31.66536 7 24 C 7 14.593391 14.593385 7 24 7 z"
     id="path1" />
  <path
     style="fill:#ffffff;stroke-width:0.0501567"
     d="m 22.62069,43.932977 c -0.09655,-0.01088 -0.423825,-0.04445 -0.727273,-0.07461 C 16.493313,43.32175 11.370835,40.404887 8.0267978,35.962382 5.8233366,33.035116 4.5172495,29.668248 4.1062173,25.855799 c -0.080188,-0.743766 -0.080188,-2.967832 0,-3.711598 0.4124168,-3.825291 1.7056582,-7.152685 3.937823,-10.131662 1.894286,-2.5280545 4.6196687,-4.7576312 7.4042357,-6.0572457 2.6622,-1.2425033 5.185993,-1.8368758 8.075235,-1.9017799 2.25211,-0.050592 4.168364,0.202228 6.219436,0.8205571 7.245923,2.1844014 12.683972,8.3424665 13.94127,15.7871405 0.209495,1.240456 0.272192,2.00951 0.272192,3.338789 0,1.329279 -0.0627,2.098333 -0.272192,3.338789 -1.308189,7.74601 -7.17475,14.107468 -14.768856,16.014743 -1.721904,0.432459 -2.749323,0.561489 -4.639499,0.582656 -0.813793,0.0091 -1.558621,0.0077 -1.655172,-0.0032 z M 19.009404,38.62069 v -1.630094 l -0.865203,-8.71e-4 c -1.037712,-10e-4 -1.402508,-0.06653 -1.993731,-0.357901 -0.340485,-0.167799 -0.51255,-0.296752 -0.854505,-0.640401 -0.471893,-0.474231 -0.709562,-0.874025 -1.00123,-1.684213 -0.53447,-1.48464 -0.913625,-2.100576 -1.60587,-2.608731 -0.134594,-0.0988 -0.258439,-0.222875 -0.275211,-0.275721 -0.07168,-0.225839 0.232086,-0.439036 0.542554,-0.380792 0.253646,0.04758 0.930222,0.391444 1.213071,0.616526 0.381871,0.303881 0.655352,0.585924 1.202119,1.239758 0.572267,0.684329 0.948307,0.985648 1.42336,1.140534 0.283111,0.09231 0.484049,0.112211 1.323933,0.131154 0.804666,0.01815 0.993462,0.0096 1.00777,-0.04559 0.359867,-1.388398 1.142758,-2.467955 2.28783,-3.154771 0.195928,-0.117518 0.294769,-0.203003 0.250784,-0.216896 -0.03993,-0.01261 -0.286873,-0.0728 -0.548763,-0.133751 -3.268256,-0.760648 -5.904699,-2.975778 -6.768448,-5.686824 -0.661876,-2.07743 -0.19734,-4.402335 1.235811,-6.184968 l 0.170526,-0.212111 -0.176368,-0.47089 c -0.380162,-1.014999 -0.509842,-1.748981 -0.465864,-2.636773 0.03545,-0.715644 0.165329,-1.235532 0.463361,-1.854778 l 0.226829,-0.471301 0.4124,0.0308 c 1.355937,0.101288 2.746764,0.907667 3.758477,2.179104 0.18311,0.230118 0.275786,0.309396 0.334484,0.28613 0.23707,-0.09397 1.463743,-0.374139 1.987151,-0.453863 0.740333,-0.112765 2.466518,-0.127817 3.184953,-0.02777 0.647303,0.09014 1.318455,0.229765 1.844172,0.383657 l 0.437959,0.128204 0.172701,-0.215029 c 0.09499,-0.118266 0.388402,-0.43196 0.652038,-0.697097 0.947964,-0.953364 2.046938,-1.497281 3.199118,-1.583347 l 0.412571,-0.03082 0.201802,0.421157 c 0.110991,0.231636 0.261967,0.646862 0.335502,0.922724 0.120724,0.452892 0.133902,0.589184 0.135784,1.404389 0.0022,0.974767 -0.04962,1.363558 -0.312068,2.339336 l -0.143547,0.533692 0.289117,0.420548 c 0.997398,1.450811 1.420847,3.160075 1.178383,4.756581 -0.158146,1.041317 -0.605636,2.137529 -1.238636,3.034281 -0.380112,0.538492 -1.269603,1.446307 -1.812767,1.850111 -1.160035,0.862403 -2.765258,1.592232 -4.11155,1.869353 -0.240939,0.0496 -0.437639,0.102015 -0.43711,0.11649 5.28e-4,0.01447 0.141594,0.109143 0.313479,0.210376 1.069339,0.629794 1.891059,1.727354 2.22793,2.975815 l 0.135337,0.501567 0.01898,2.896552 c 0.01627,2.482823 0.02933,2.896552 0.09142,2.896552 0.131221,0 1.309251,-0.447207 2.006401,-0.761675 1.20253,-0.542433 2.489887,-1.332345 3.574031,-2.192996 0.662036,-0.525559 2.11691,-1.9747 2.623064,-2.612727 2.071013,-2.610595 3.26544,-5.5143 3.662139,-8.902822 0.08373,-0.715216 0.08306,-2.843051 -0.0011,-3.586207 C 40.388896,17.37643 37.996491,13.198702 34.12335,10.300013 31.77518,8.5426238 28.790313,7.3828969 25.819608,7.0737143 c -0.955171,-0.099411 -2.684045,-0.099411 -3.639216,0 -3.334755,0.3470719 -6.487323,1.6837633 -9.122802,3.8680757 -0.562849,0.466495 -1.801767,1.716096 -2.255066,2.274511 -2.0905861,2.575375 -3.368076,5.651406 -3.739043,9.003135 -0.084235,0.761071 -0.083537,2.831102 0.0012,3.561128 0.333966,2.87717 1.205135,5.300819 2.7403476,7.623825 1.7331544,2.622521 4.2696424,4.796639 7.0804494,6.068917 0.703842,0.318585 1.896498,0.772965 2.036152,0.775736 0.08183,0.0016 0.08777,-0.108656 0.08777,-1.628352 z"
     id="path2" />
</svg>
